<svg preserveAspectRatio="none" overflow="visible" style="display: block;" width="22" height="22" viewBox="0 0 22 22" fill="none" xmlns="http://www.w3.org/2000/svg">
<g id="icon">
<path id="Vector" d="M4.76667 9.16667H17.2333C17.8408 9.16667 18.3333 9.65915 18.3333 10.2667V17.2333C18.3333 17.8408 17.8408 18.3333 17.2333 18.3333H4.76667C4.15915 18.3333 3.66667 17.8408 3.66667 17.2333V10.2667C3.66667 9.65915 4.15915 9.16667 4.76667 9.16667Z" stroke-width="1.46667" stroke-linecap="round" stroke-linejoin="round" stroke="#121212"/>
<path id="Vector_2" d="M3.66667 12.8333H11M11 12.8333H18.3333M11 12.8333V9.16667M11 12.8333V18.3333M11 9.16667C9.16667 6.41667 5.5 7.33333 7.33333 9.16667M11 9.16667C12.8333 6.41667 16.5 7.33333 14.6667 9.16667" stroke-width="1.46667" stroke-linecap="round" stroke-linejoin="round" stroke="#121212"/>
</g>
</svg>
